<?xml version="1.0" encoding="UTF-8" standalone="no"?>
<!DOCTYPE svg PUBLIC "-//W3C//DTD SVG 1.1//EN"
 "http://www.w3.org/Graphics/SVG/1.1/DTD/svg11.dtd">
<!-- Generated by graphviz version 9.0.0 (20230911.1827)
 -->
<!-- Pages: 1 -->
<svg width="582pt" height="404pt"
 viewBox="0.00 0.00 582.00 404.00" xmlns="http://www.w3.org/2000/svg" xmlns:xlink="http://www.w3.org/1999/xlink">
<g id="graph0" class="graph" transform="scale(1 1) rotate(0) translate(4 400)">
<polygon fill="white" stroke="none" points="-4,4 -4,-400 578,-400 578,4 -4,4"/>
<!-- jqt -->
<g id="node1" class="node">
<title>jqt</title>
<ellipse fill="none" stroke="black" cx="82" cy="-306" rx="27" ry="18"/>
<text text-anchor="middle" x="82" y="-300.95" font-family="Times,serif" font-size="14.00">jqt</text>
</g>
<!-- rhn -->
<g id="node2" class="node">
<title>rhn</title>
<ellipse fill="none" stroke="black" cx="82" cy="-234" rx="27" ry="18"/>
<text text-anchor="middle" x="82" y="-228.95" font-family="Times,serif" font-size="14.00">rhn</text>
</g>
<!-- jqt&#45;&#45;rhn -->
<g id="edge1" class="edge">
<title>jqt&#45;&#45;rhn</title>
<path fill="none" stroke="black" d="M82,-287.7C82,-276.85 82,-262.92 82,-252.1"/>
</g>
<!-- xhk -->
<g id="node3" class="node">
<title>xhk</title>
<ellipse fill="none" stroke="black" cx="27" cy="-90" rx="27" ry="18"/>
<text text-anchor="middle" x="27" y="-84.95" font-family="Times,serif" font-size="14.00">xhk</text>
</g>
<!-- jqt&#45;&#45;xhk -->
<g id="edge2" class="edge">
<title>jqt&#45;&#45;xhk</title>
<path fill="none" stroke="black" d="M68.81,-289.88C60.83,-279.83 51.21,-265.97 46,-252 27.41,-202.16 25.91,-138.16 26.4,-108.07"/>
</g>
<!-- nvd -->
<g id="node4" class="node">
<title>nvd</title>
<ellipse fill="none" stroke="black" cx="323" cy="-90" rx="27" ry="18"/>
<text text-anchor="middle" x="323" y="-84.95" font-family="Times,serif" font-size="14.00">nvd</text>
</g>
<!-- jqt&#45;&#45;nvd -->
<g id="edge3" class="edge">
<title>jqt&#45;&#45;nvd</title>
<path fill="none" stroke="black" d="M97.81,-290.96C141.48,-252.18 263.39,-143.93 307.13,-105.09"/>
</g>
<!-- rhn&#45;&#45;xhk -->
<g id="edge12" class="edge">
<title>rhn&#45;&#45;xhk</title>
<path fill="none" stroke="black" d="M75.47,-216.15C64.89,-188.82 44.1,-135.14 33.52,-107.82"/>
</g>
<!-- hfx -->
<g id="node9" class="node">
<title>hfx</title>
<ellipse fill="none" stroke="black" cx="137" cy="-18" rx="27" ry="18"/>
<text text-anchor="middle" x="137" y="-12.95" font-family="Times,serif" font-size="14.00">hfx</text>
</g>
<!-- rhn&#45;&#45;hfx -->
<g id="edge13" class="edge">
<title>rhn&#45;&#45;hfx</title>
<path fill="none" stroke="black" d="M85.29,-215.86C88.83,-197.87 94.78,-168.83 101,-144 110.76,-105.01 124.35,-59.81 131.73,-35.88"/>
</g>
<!-- bvb -->
<g id="node13" class="node">
<title>bvb</title>
<ellipse fill="none" stroke="black" cx="137" cy="-162" rx="27" ry="18"/>
<text text-anchor="middle" x="137" y="-156.95" font-family="Times,serif" font-size="14.00">bvb</text>
</g>
<!-- rhn&#45;&#45;bvb -->
<g id="edge14" class="edge">
<title>rhn&#45;&#45;bvb</title>
<path fill="none" stroke="black" d="M94.21,-217.46C103.32,-205.86 115.72,-190.08 124.83,-178.49"/>
</g>
<!-- xhk&#45;&#45;hfx -->
<g id="edge7" class="edge">
<title>xhk&#45;&#45;hfx</title>
<path fill="none" stroke="black" d="M46.16,-76.81C66.35,-63.96 97.95,-43.85 118.06,-31.05"/>
</g>
<!-- lhk -->
<g id="node12" class="node">
<title>lhk</title>
<ellipse fill="none" stroke="black" cx="369" cy="-18" rx="27" ry="18"/>
<text text-anchor="middle" x="369" y="-12.95" font-family="Times,serif" font-size="14.00">lhk</text>
</g>
<!-- nvd&#45;&#45;lhk -->
<g id="edge25" class="edge">
<title>nvd&#45;&#45;lhk</title>
<path fill="none" stroke="black" d="M333.44,-73.12C340.97,-61.66 351.08,-46.26 358.6,-34.82"/>
</g>
<!-- rsh -->
<g id="node5" class="node">
<title>rsh</title>
<ellipse fill="none" stroke="black" cx="458" cy="-306" rx="27" ry="18"/>
<text text-anchor="middle" x="458" y="-300.95" font-family="Times,serif" font-size="14.00">rsh</text>
</g>
<!-- frs -->
<g id="node6" class="node">
<title>frs</title>
<ellipse fill="none" stroke="black" cx="418" cy="-234" rx="27" ry="18"/>
<text text-anchor="middle" x="418" y="-228.95" font-family="Times,serif" font-size="14.00">frs</text>
</g>
<!-- rsh&#45;&#45;frs -->
<g id="edge4" class="edge">
<title>rsh&#45;&#45;frs</title>
<path fill="none" stroke="black" d="M448.72,-288.76C442.26,-277.46 433.68,-262.44 427.23,-251.15"/>
</g>
<!-- pzl -->
<g id="node7" class="node">
<title>pzl</title>
<ellipse fill="none" stroke="black" cx="490" cy="-234" rx="27" ry="18"/>
<text text-anchor="middle" x="490" y="-228.95" font-family="Times,serif" font-size="14.00">pzl</text>
</g>
<!-- rsh&#45;&#45;pzl -->
<g id="edge5" class="edge">
<title>rsh&#45;&#45;pzl</title>
<path fill="none" stroke="black" d="M465.58,-288.41C470.68,-277.25 477.38,-262.6 482.47,-251.47"/>
</g>
<!-- lsr -->
<g id="node8" class="node">
<title>lsr</title>
<ellipse fill="none" stroke="black" cx="547" cy="-162" rx="27" ry="18"/>
<text text-anchor="middle" x="547" y="-156.95" font-family="Times,serif" font-size="14.00">lsr</text>
</g>
<!-- rsh&#45;&#45;lsr -->
<g id="edge6" class="edge">
<title>rsh&#45;&#45;lsr</title>
<path fill="none" stroke="black" d="M478.66,-294.05C494.02,-284.85 514.28,-270.27 526,-252 540.14,-229.95 544.78,-199.35 546.29,-180.38"/>
</g>
<!-- frs&#45;&#45;lsr -->
<g id="edge31" class="edge">
<title>frs&#45;&#45;lsr</title>
<path fill="none" stroke="black" d="M438.44,-221.91C462.6,-208.8 502.54,-187.12 526.66,-174.04"/>
</g>
<!-- qnr -->
<g id="node11" class="node">
<title>qnr</title>
<ellipse fill="none" stroke="black" cx="361" cy="-162" rx="27" ry="18"/>
<text text-anchor="middle" x="361" y="-156.95" font-family="Times,serif" font-size="14.00">qnr</text>
</g>
<!-- frs&#45;&#45;qnr -->
<g id="edge32" class="edge">
<title>frs&#45;&#45;qnr</title>
<path fill="none" stroke="black" d="M405.63,-217.81C396.07,-206.07 382.9,-189.89 373.34,-178.16"/>
</g>
<!-- frs&#45;&#45;lhk -->
<g id="edge33" class="edge">
<title>frs&#45;&#45;lhk</title>
<path fill="none" stroke="black" d="M414.07,-215.85C404.9,-175.78 382.14,-76.38 372.95,-36.23"/>
</g>
<!-- pzl&#45;&#45;nvd -->
<g id="edge17" class="edge">
<title>pzl&#45;&#45;nvd</title>
<path fill="none" stroke="black" d="M476.09,-218.47C458.4,-200.28 426.58,-168.54 397,-144 379,-129.07 357.08,-113.69 341.79,-103.37"/>
</g>
<!-- pzl&#45;&#45;lsr -->
<g id="edge18" class="edge">
<title>pzl&#45;&#45;lsr</title>
<path fill="none" stroke="black" d="M502.37,-217.81C511.93,-206.07 525.1,-189.89 534.66,-178.16"/>
</g>
<!-- pzl&#45;&#45;hfx -->
<g id="edge19" class="edge">
<title>pzl&#45;&#45;hfx</title>
<path fill="none" stroke="black" d="M481.92,-216.33C464.63,-182.63 420.52,-106.69 359,-72 295.14,-36 207.64,-24.35 164.02,-20.66"/>
</g>
<!-- lsr&#45;&#45;lhk -->
<g id="edge26" class="edge">
<title>lsr&#45;&#45;lhk</title>
<path fill="none" stroke="black" d="M530.25,-147.64C496.33,-120.58 419.83,-59.55 385.83,-32.43"/>
</g>
<!-- cmg -->
<g id="node10" class="node">
<title>cmg</title>
<ellipse fill="none" stroke="black" cx="308" cy="-234" rx="27.3" ry="18"/>
<text text-anchor="middle" x="308" y="-228.95" font-family="Times,serif" font-size="14.00">cmg</text>
</g>
<!-- cmg&#45;&#45;nvd -->
<g id="edge8" class="edge">
<title>cmg&#45;&#45;nvd</title>
<path fill="none" stroke="black" d="M309.84,-215.59C312.73,-188.19 318.32,-135.32 321.19,-108.11"/>
</g>
<!-- cmg&#45;&#45;qnr -->
<g id="edge9" class="edge">
<title>cmg&#45;&#45;qnr</title>
<path fill="none" stroke="black" d="M319.76,-217.46C328.55,-205.86 340.5,-190.08 349.27,-178.49"/>
</g>
<!-- cmg&#45;&#45;lhk -->
<g id="edge10" class="edge">
<title>cmg&#45;&#45;lhk</title>
<path fill="none" stroke="black" d="M299.87,-216.76C285.87,-186.33 261.12,-119.53 287,-72 299.24,-49.52 325.57,-35.12 345.11,-27.09"/>
</g>
<!-- cmg&#45;&#45;bvb -->
<g id="edge11" class="edge">
<title>cmg&#45;&#45;bvb</title>
<path fill="none" stroke="black" d="M285.29,-223.7C252.59,-210.32 192.56,-185.74 159.8,-172.33"/>
</g>
<!-- qnr&#45;&#45;nvd -->
<g id="edge20" class="edge">
<title>qnr&#45;&#45;nvd</title>
<path fill="none" stroke="black" d="M352.19,-144.76C346.05,-133.46 337.89,-118.44 331.77,-107.15"/>
</g>
<!-- bvb&#45;&#45;xhk -->
<g id="edge15" class="edge">
<title>bvb&#45;&#45;xhk</title>
<path fill="none" stroke="black" d="M117.84,-148.81C97.65,-135.96 66.05,-115.85 45.94,-103.05"/>
</g>
<!-- bvb&#45;&#45;hfx -->
<g id="edge16" class="edge">
<title>bvb&#45;&#45;hfx</title>
<path fill="none" stroke="black" d="M137,-143.59C137,-116.19 137,-63.32 137,-36.11"/>
</g>
<!-- ntq -->
<g id="node14" class="node">
<title>ntq</title>
<ellipse fill="none" stroke="black" cx="110" cy="-378" rx="27" ry="18"/>
<text text-anchor="middle" x="110" y="-372.95" font-family="Times,serif" font-size="14.00">ntq</text>
</g>
<!-- ntq&#45;&#45;jqt -->
<g id="edge21" class="edge">
<title>ntq&#45;&#45;jqt</title>
<path fill="none" stroke="black" d="M103.36,-360.41C98.9,-349.25 93.04,-334.6 88.59,-323.47"/>
</g>
<!-- ntq&#45;&#45;xhk -->
<g id="edge22" class="edge">
<title>ntq&#45;&#45;xhk</title>
<path fill="none" stroke="black" d="M89.75,-365.51C75.26,-356.2 56.53,-341.74 46,-324 4.16,-253.5 16.52,-149.19 23.59,-108.32"/>
</g>
<!-- ntq&#45;&#45;hfx -->
<g id="edge23" class="edge">
<title>ntq&#45;&#45;hfx</title>
<path fill="none" stroke="black" d="M125.04,-362.83C148.71,-338.92 192,-287.95 192,-235 192,-235 192,-235 192,-161 192,-112.36 163.59,-60.28 147.6,-34.84"/>
</g>
<!-- ntq&#45;&#45;bvb -->
<g id="edge24" class="edge">
<title>ntq&#45;&#45;bvb</title>
<path fill="none" stroke="black" d="M112.73,-359.83C114.35,-349.47 116.39,-335.99 118,-324 125.01,-271.84 131.92,-209.97 135.13,-180.42"/>
</g>
<!-- rzs -->
<g id="node15" class="node">
<title>rzs</title>
<ellipse fill="none" stroke="black" cx="426" cy="-378" rx="27" ry="18"/>
<text text-anchor="middle" x="426" y="-372.95" font-family="Times,serif" font-size="14.00">rzs</text>
</g>
<!-- rzs&#45;&#45;rsh -->
<g id="edge27" class="edge">
<title>rzs&#45;&#45;rsh</title>
<path fill="none" stroke="black" d="M433.58,-360.41C438.68,-349.25 445.38,-334.6 450.47,-323.47"/>
</g>
<!-- rzs&#45;&#45;lsr -->
<g id="edge28" class="edge">
<title>rzs&#45;&#45;lsr</title>
<path fill="none" stroke="black" d="M445.7,-365.11C475.33,-345.82 529.76,-304.51 547,-252 554.86,-228.07 552.71,-198.53 550.11,-180.23"/>
</g>
<!-- rzs&#45;&#45;cmg -->
<g id="edge29" class="edge">
<title>rzs&#45;&#45;cmg</title>
<path fill="none" stroke="black" d="M404.71,-366.47C387.79,-357.22 364.47,-342.37 349,-324 330.7,-302.27 318.83,-271.01 312.79,-251.91"/>
</g>
<!-- rzs&#45;&#45;qnr -->
<g id="edge30" class="edge">
<title>rzs&#45;&#45;qnr</title>
<path fill="none" stroke="black" d="M419.44,-360.2C410.29,-336.38 393.52,-291.3 382,-252 374.77,-227.32 368.28,-198.24 364.49,-180.2"/>
</g>
</g>
</svg>
